<?xml version="1.0" encoding="iso-8859-1"?>
<!-- Generator: Adobe Illustrator 22.1.0, SVG Export Plug-In . SVG Version: 6.00 Build 0)  -->
<svg version="1.1" id="&#x56FE;&#x5C42;_1" xmlns="http://www.w3.org/2000/svg" xmlns:xlink="http://www.w3.org/1999/xlink" x="0px"
	 y="0px" viewBox="0 0 500 500" style="enable-background:new 0 0 500 500;" xml:space="preserve">
<g>
	<g>
		<circle style="fill:#4BA3D3;" cx="251.21" cy="217.39" r="39.552"/>
		<path style="fill:#4BA3D3;" d="M337.988,337.705c-22.201,21.363-52.36,34.348-85.591,34.348
			c-34.348,0-65.485-14.102-87.964-36.722c22.06-29.601,48.031-44.401,87.964-44.401
			C293.587,290.931,315.507,306.429,337.988,337.705z"/>
	</g>
	<path style="fill:#4BA3D3;" d="M252.701,450.865c-112.403,0-203.855-91.439-203.855-203.848
		c0-112.403,91.452-203.848,203.855-203.848s203.855,91.445,203.855,203.848C456.556,359.426,365.104,450.865,252.701,450.865z
		 M252.701,101.814c-80.067,0-145.21,65.136-145.21,145.203s65.143,145.216,145.21,145.216s145.21-65.15,145.21-145.216
		S332.768,101.814,252.701,101.814z"/>
	<path style="fill:#4BA3D3;" d="M300.275,98.964h-95.144c-0.716,0-1.297-0.581-1.297-1.297V2.523c0-0.716,0.581-1.297,1.297-1.297
		h95.144c0.716,0,1.297,0.581,1.297,1.297v95.144C301.572,98.383,300.991,98.964,300.275,98.964z"/>
	<path style="fill:#4BA3D3;" d="M189.835,102.709l-72.885,61.158c-0.549,0.46-1.367,0.389-1.827-0.16L53.965,90.822
		c-0.46-0.549-0.389-1.367,0.16-1.827l72.885-61.158c0.549-0.46,1.367-0.389,1.827,0.16l61.158,72.885
		C190.455,101.431,190.384,102.249,189.835,102.709z"/>
	<path style="fill:#4BA3D3;" d="M113.761,179.422l-16.522,93.699c-0.124,0.705-0.797,1.176-1.502,1.052L2.038,257.651
		c-0.705-0.124-1.176-0.797-1.052-1.502l16.522-93.699c0.124-0.705,0.797-1.176,1.502-1.052l93.699,16.522
		C113.414,178.044,113.885,178.716,113.761,179.422z"/>
	<path style="fill:#4BA3D3;" d="M104.795,287.086l47.572,82.397c0.358,0.62,0.146,1.413-0.475,1.772l-82.397,47.572
		c-0.62,0.358-1.413,0.146-1.772-0.475l-47.572-82.397c-0.358-0.62-0.146-1.413,0.475-1.772l82.397-47.572
		C103.643,286.254,104.437,286.466,104.795,287.086z"/>
	<path style="fill:#4BA3D3;" d="M166.159,375.553l89.407,32.541c0.673,0.245,1.02,0.989,0.775,1.662L223.8,499.163
		c-0.245,0.673-0.989,1.02-1.662,0.775l-89.407-32.541c-0.673-0.245-1.02-0.989-0.775-1.662l32.541-89.407
		C164.742,375.655,165.486,375.308,166.159,375.553z"/>
	<path style="fill:#4BA3D3;" d="M270.033,403.877l89.406-32.541c0.673-0.245,1.417,0.102,1.662,0.775l32.541,89.406
		c0.245,0.673-0.102,1.417-0.775,1.662l-89.407,32.541c-0.673,0.245-1.417-0.102-1.662-0.775l-32.541-89.407
		C269.013,404.866,269.36,404.122,270.033,403.877z"/>
	<path style="fill:#4BA3D3;" d="M362.662,355.725l47.572-82.397c0.358-0.62,1.151-0.833,1.772-0.475l82.397,47.572
		c0.62,0.358,0.833,1.151,0.475,1.772l-47.572,82.397c-0.358,0.62-1.151,0.833-1.772,0.475l-82.397-47.572
		C362.517,357.139,362.304,356.346,362.662,355.725z"/>
	<path style="fill:#4BA3D3;" d="M403.376,260.863l-16.522-93.699c-0.124-0.705,0.347-1.378,1.052-1.502l93.699-16.522
		c0.705-0.124,1.378,0.347,1.502,1.052l16.522,93.699c0.124,0.705-0.347,1.378-1.052,1.502l-93.699,16.522
		C404.173,262.039,403.501,261.568,403.376,260.863z"/>
	<path style="fill:#4BA3D3;" d="M374.76,154.555l-72.885-61.158c-0.549-0.46-0.62-1.278-0.16-1.827l61.158-72.885
		c0.46-0.549,1.278-0.62,1.827-0.16l72.885,61.158c0.549,0.46,0.62,1.278,0.16,1.827l-61.158,72.885
		C376.127,154.944,375.309,155.016,374.76,154.555z"/>
</g>
</svg>
