<?xml version="1.0" encoding="iso-8859-1"?>
<!-- Generator: Adobe Illustrator 22.1.0, SVG Export Plug-In . SVG Version: 6.00 Build 0)  -->
<svg version="1.1" id="&#x56FE;&#x5C42;_1" xmlns="http://www.w3.org/2000/svg" xmlns:xlink="http://www.w3.org/1999/xlink" x="0px"
	 y="0px" viewBox="0 0 500 500" style="enable-background:new 0 0 500 500;" xml:space="preserve">
<g>
	<path style="fill:#4BA3D3;" d="M188.084,234.38H45.577c-25.209,0-45.714-20.506-45.714-45.714V46.159
		c0-25.209,20.506-45.714,45.714-45.714h142.507c25.209,0,45.714,20.506,45.714,45.714v142.507
		C233.798,213.875,213.292,234.38,188.084,234.38z M45.577,32.712c-7.413,0-13.447,6.034-13.447,13.447v142.507
		c0,7.413,6.034,13.447,13.447,13.447h142.507c7.413,0,13.447-6.034,13.447-13.447V46.159c0-7.413-6.034-13.447-13.447-13.447
		H45.577z"/>
	<path style="fill:#4BA3D3;" d="M190.274,500.583H43.387c-23.995,0-43.524-19.529-43.524-43.524V310.171
		c0-23.995,19.529-43.524,43.524-43.524h146.887c23.995,0,43.524,19.529,43.524,43.524v146.887
		C233.798,481.054,214.269,500.583,190.274,500.583z M43.387,298.914c-6.208,0-11.257,5.05-11.257,11.257v146.887
		c0,6.208,5.05,11.257,11.257,11.257h146.887c6.208,0,11.257-5.05,11.257-11.257V310.171c0-6.208-5.05-11.257-11.257-11.257H43.387z
		"/>
	<path style="fill:#4BA3D3;" d="M456.476,500.583H309.589c-24.405,0-43.524-15.267-43.524-34.756v-99.889
		c0-19.489,19.119-34.756,43.524-34.756h146.887c24.405,0,43.524,15.267,43.524,34.756v99.889
		C500,485.316,480.881,500.583,456.476,500.583z M298.41,465.803c0.67,0,4.624,2.513,11.178,2.513h146.887
		c6.917,0,10.934-2.797,11.541-3.766l-0.284-98.613c-0.347,0.37-4.396-2.489-11.257-2.489H309.589
		c-6.917,0-10.934,2.797-11.541,3.758l0.284,98.621C298.347,465.811,298.379,465.803,298.41,465.803z"/>
	<path style="fill:#4BA3D3;" d="M456.476,306.981H309.589c-24.405,0-43.524-23.444-43.524-53.379V53.824
		c0-29.935,19.119-53.379,43.524-53.379h146.887C480.881,0.445,500,23.889,500,53.824v199.778
		C500,283.537,480.881,306.981,456.476,306.981z M309.589,32.712c-4.482,0-11.257,8.421-11.257,21.112v199.778
		c0,12.691,6.775,21.112,11.257,21.112h146.887c4.482,0,11.257-8.421,11.257-21.112V53.824c0-12.691-6.775-21.112-11.257-21.112
		H309.589z"/>
</g>
</svg>
