<?xml version="1.0" encoding="iso-8859-1"?>
<!-- Generator: Adobe Illustrator 22.1.0, SVG Export Plug-In . SVG Version: 6.00 Build 0)  -->
<svg version="1.1" id="&#x56FE;&#x5C42;_1" xmlns="http://www.w3.org/2000/svg" xmlns:xlink="http://www.w3.org/1999/xlink" x="0px"
	 y="0px" viewBox="0 0 500 500" style="enable-background:new 0 0 500 500;" xml:space="preserve">
<g>
	<g>
		<circle style="fill:#4BA3D3;" cx="455.224" cy="220.269" r="44.776"/>
		<circle style="fill:#4BA3D3;" cx="291.045" cy="324.746" r="44.776"/>
		<circle style="fill:#4BA3D3;" cx="455.224" cy="429.224" r="44.776"/>
		
			<rect x="305.326" y="259.816" transform="matrix(0.8082 -0.5889 0.5889 0.8082 -89.8856 276.8991)" style="fill:#4BA3D3;" width="149.699" height="33.266"/>
		
			<rect x="305.326" y="364.294" transform="matrix(0.8082 0.5889 -0.5889 0.8082 297.2345 -150.8246)" style="fill:#4BA3D3;" width="149.699" height="33.266"/>
	</g>
	<g>
		<circle style="fill:#4BA3D3;" cx="200.918" cy="100.866" r="74.627"/>
		<path style="fill:#4BA3D3;" d="M80.367,359.189h114.811V198.455c0,0-38.27,0-63.784-34.443c-12.757,0-51.027,34.443-51.027,68.886
			S80.367,359.189,80.367,359.189z"/>
		<path style="fill:#4BA3D3;" d="M321.47,232.898v32.262c-10.103-5.97-21.814-9.3-34.443-9.3c-38.002,0-68.886,30.884-68.886,68.886
			c0,12.629,3.329,24.34,9.3,34.443h-20.781V198.455c0,0,38.232,0,63.835-34.443C283.237,164.011,321.47,198.455,321.47,232.898z"/>
		<rect x="190.244" y="198.455" style="fill:#4BA3D3;" width="21.35" height="160.735"/>
	</g>
	<g>
		<path style="fill:#4BA3D3;" d="M138.347,152.53c-9.644,2.411-18.599,6.314-26.751,11.481c-4.592,2.525-10.103,6.659-15.499,11.94
			c-32.721-0.689-58.898-27.439-58.898-60.39c0-33.295,26.981-60.39,60.39-60.39c9.644,0,18.714,2.296,26.751,6.314
			c-6.085,10.792-9.529,23.306-9.529,36.625C114.811,119.58,123.88,138.868,138.347,152.53z"/>
		<path style="fill:#4BA3D3;" d="M81.86,192.944c-7.463,11.136-12.974,24.225-12.974,37.199v94.604H0c0,0,0-74.397,0-102.297
			c0-27.899,30.999-55.683,41.332-55.683C54.19,183.988,70.953,190.533,81.86,192.944z"/>
	</g>
</g>
</svg>
