<?xml version="1.0" encoding="utf-8"?>
<!-- Generator: Adobe Illustrator 22.1.0, SVG Export Plug-In . SVG Version: 6.00 Build 0)  -->
<svg version="1.1" id="图层_1" xmlns="http://www.w3.org/2000/svg" xmlns:xlink="http://www.w3.org/1999/xlink" x="0px" y="0px"
	 viewBox="0 0 54 64" style="enable-background:new 0 0 54 64;" xml:space="preserve">
<style type="text/css">
	.st0{fill:#4BA3D3;}
	.st1{fill:#FFFFFF;}
</style>
<g>
	<path class="st0" d="M14.4,0.5c-2.8-1.4-6.7,0.1-8.1,3S6.1,10.3,9.5,12c2.8,1.4,13.9,3.8,15.3,1C26.1,10,17.2,1.9,14.4,0.5
		L14.4,0.5L14.4,0.5z M10.7,8.7c-1.4-0.7-2-2.2-1.4-3.7c0.7-1.4,2.4-1.5,3.8-0.8c1.4,0.7,7.2,4.8,6.5,6.2
		C18.9,11.9,12.2,9.4,10.7,8.7L10.7,8.7L10.7,8.7z"/>
	<g>
		<path class="st0" d="M20.7,13.8h33.2v8.5H20.7V13.8z"/>
		<path class="st0" d="M-0.2,13.8h22.7v8.5H-0.2V13.8z"/>
	</g>
	<g>
		<path class="st0" d="M16.9,24.6H51V64H16.9V24.6z"/>
		<path class="st0" d="M2.7,24.6h19.9V64H2.7V24.6z"/>
	</g>
	<path class="st0" d="M48,3.5c-1.4-2.8-5.3-4.3-8.1-3C37.1,1.8,28.1,10,29.5,12.9c1.4,2.8,12.4,0.4,15.3-1
		C48.2,10.3,49.4,6.3,48,3.5L48,3.5L48,3.5z M43.6,8.7c-1.4,0.7-8.3,3.1-8.9,1.8c-0.7-1.4,5.1-5.5,6.5-6.2c1.4-0.7,3.1-0.6,3.8,0.8
		C45.6,6.5,45,8.1,43.6,8.7L43.6,8.7L43.6,8.7z"/>
	<path class="st1" d="M32.4,53.5c-0.2,0-0.5-0.1-0.7-0.2l-4.9-2.6l-4.9,2.6c-0.7,0.4-1.5,0.1-1.9-0.6c-0.2-0.3-0.2-0.6-0.2-0.9
		l0.9-5.4l-3.9-3.8c-0.6-0.5-0.6-1.4,0-2c0.2-0.2,0.5-0.4,0.8-0.4l5.5-0.8l2.4-5c0.3-0.5,0.8-0.8,1.3-0.8c0.5,0,1,0.3,1.3,0.8l2.4,5
		l5.5,0.8c0.8,0.1,1.3,0.8,1.2,1.6c-0.1,0.3-0.2,0.6-0.4,0.8l-3.9,3.8l0.9,5.4c0.1,0.8-0.4,1.5-1.1,1.6
		C32.6,53.5,32.5,53.5,32.4,53.5L32.4,53.5z"/>
</g>
</svg>
