<?xml version="1.0" encoding="iso-8859-1"?>
<!-- Generator: Adobe Illustrator 22.1.0, SVG Export Plug-In . SVG Version: 6.00 Build 0)  -->
<svg version="1.1" id="&#x56FE;&#x5C42;_1" xmlns="http://www.w3.org/2000/svg" xmlns:xlink="http://www.w3.org/1999/xlink" x="0px"
	 y="0px" viewBox="0 0 500 500" style="enable-background:new 0 0 500 500;" xml:space="preserve">
<g>
	<path style="fill:#4BA3D3;" d="M250.228,0C112.283,0,0.456,111.827,0.456,249.772s111.827,249.772,249.772,249.772
		S500,387.717,500,249.772S388.173,0,250.228,0z M267.738,446.383c-7.461,7.119-18.815,10.679-34.071,10.679
		c-30.177,0-45.258-13.563-45.258-40.682c0-13.221,3.727-23.392,11.188-30.511c7.453-7.119,18.815-10.679,34.07-10.679
		s26.61,3.56,34.071,10.679c7.453,7.119,11.188,17.29,11.188,30.511C278.926,429.268,275.191,439.264,267.738,446.383z
		 M351.135,264.08c-18.307,19.156-44.416,32.633-78.312,40.427v46.275h-76.277v-93.059c12.205-1.017,24.409-2.797,36.613-5.34
		c12.204-2.542,23.05-6.522,32.545-11.949c9.487-5.419,17.202-12.538,23.138-21.358c5.927-8.812,8.898-19.999,8.898-33.562
		c0-16.272-4.155-27.714-12.458-34.325c-8.312-6.611-18.902-9.916-31.782-9.916c-16.273,0-28.564,4.243-36.868,12.713
		c-8.311,8.478-13.984,21.866-17.035,40.172l-74.752-11.696c4.068-32.878,17.202-58.559,39.41-77.04
		c22.2-18.473,53.307-27.714,93.313-27.714c15.589,0,30.678,1.78,45.258,5.339c14.571,3.56,27.459,9.582,38.646,18.052
		c11.188,8.478,20.166,19.665,26.952,33.562c6.777,13.905,10.17,31.194,10.17,51.869
		C378.595,219.076,369.441,244.932,351.135,264.08z"/>
	<path style="fill:#FFFFFF;" d="M341.473,101.101c-11.188-8.47-24.075-14.493-38.646-18.052c-14.58-3.56-29.669-5.339-45.258-5.339
		c-40.006,0-71.113,9.241-93.313,27.714c-22.208,18.481-35.342,44.162-39.41,77.04l74.752,11.696
		c3.051-18.307,8.724-31.695,17.035-40.172c8.303-8.47,20.595-12.713,36.868-12.713c12.88,0,23.471,3.305,31.782,9.916
		c8.303,6.61,12.458,18.052,12.458,34.325c0,13.563-2.972,24.75-8.898,33.562c-5.936,8.82-13.65,15.939-23.138,21.358
		c-9.495,5.427-20.341,9.407-32.545,11.949c-12.205,2.543-24.409,4.323-36.613,5.34v93.059h76.277v-46.275
		c33.896-7.794,60.005-21.271,78.312-40.427c18.307-19.148,27.46-45.004,27.46-77.548c0-20.674-3.393-37.964-10.17-51.869
		C361.639,120.766,352.66,109.579,341.473,101.101z"/>
	<path style="fill:#FFFFFF;" d="M233.667,375.19c-15.255,0-26.618,3.56-34.07,10.679c-7.461,7.119-11.188,17.29-11.188,30.511
		c0,27.118,15.081,40.682,45.258,40.682c15.255,0,26.61-3.56,34.071-10.679c7.453-7.119,11.188-17.115,11.188-30.003
		c0-13.221-3.734-23.392-11.188-30.511C260.277,378.75,248.923,375.19,233.667,375.19z"/>
</g>
</svg>
