<?xml version="1.0" encoding="iso-8859-1"?>
<!-- Generator: Adobe Illustrator 22.1.0, SVG Export Plug-In . SVG Version: 6.00 Build 0)  -->
<svg version="1.1" id="&#x56FE;&#x5C42;_1" xmlns="http://www.w3.org/2000/svg" xmlns:xlink="http://www.w3.org/1999/xlink" x="0px"
	 y="0px" viewBox="0 0 500 500" style="enable-background:new 0 0 500 500;" xml:space="preserve">
<g>
	<g>
		<rect x="83.213" y="263.472" style="fill:#4BA3D3;" width="333.869" height="180.72"/>
		<polygon style="fill:#4BA3D3;" points="250.147,144.238 83.213,264.416 417.081,264.416 		"/>
	</g>
	<path style="fill:#4BA3D3;" d="M289.451,94.151L42.583,273.231c-1.151,0.835-2.776,0.576-3.611-0.575L1.785,221.392
		c-0.835-1.151-0.576-2.776,0.575-3.611l246.868-179.08c1.151-0.835,2.776-0.576,3.611,0.575l37.188,51.264
		C290.861,91.691,290.602,93.316,289.451,94.151z"/>
	<path style="fill:#4BA3D3;" d="M211.819,94.151l246.868,179.08c1.151,0.835,2.776,0.576,3.611-0.575l37.188-51.264
		c0.835-1.151,0.576-2.776-0.575-3.611L252.043,38.701c-1.151-0.835-2.776-0.576-3.611,0.575L211.245,90.54
		C210.41,91.691,210.668,93.316,211.819,94.151z"/>
	<rect x="116.244" y="51.501" style="fill:#4BA3D3;" width="66.241" height="92.737"/>
	<g>
		<rect x="131.062" y="282.079" style="fill:#FFFFFF;" width="95.268" height="95.268"/>
		<rect x="273.964" y="282.079" style="fill:#FFFFFF;" width="95.268" height="95.268"/>
	</g>
</g>
</svg>
