<?xml version="1.0" encoding="iso-8859-1"?>
<!-- Generator: Adobe Illustrator 22.1.0, SVG Export Plug-In . SVG Version: 6.00 Build 0)  -->
<svg version="1.1" id="&#x56FE;&#x5C42;_1" xmlns="http://www.w3.org/2000/svg" xmlns:xlink="http://www.w3.org/1999/xlink" x="0px"
	 y="0px" viewBox="0 0 500 500" style="enable-background:new 0 0 500 500;" xml:space="preserve">
<g>
	<path style="fill:#4BA3D3;" d="M352.358,317.975c-11.23-3.843-22.725-7.026-34.391-9.563
		c47.515-24.276,80.046-73.695,80.046-130.715C398.013,96.678,332.335,31,251.316,31S104.619,96.678,104.619,177.697
		c0,56.433,31.871,105.415,78.591,129.951C106.326,322.412,37.069,362.682,0,428.606h322.446
		c-4.579-11.163-7.156-23.328-7.156-36.209C315.29,361.912,329.745,334.864,352.358,317.975z"/>
	<path style="fill:#4BA3D3;" d="M420.833,310.698c-43.723,0-79.167,35.444-79.167,79.167s35.444,79.167,79.167,79.167
		S500,433.588,500,389.865S464.556,310.698,420.833,310.698z M465.043,401.548h-30.692v32.754h-27.485v-32.754h-30.463v-27.257
		h30.463v-31.837h27.485v31.837h30.692V401.548z"/>
	<polygon style="fill:#FFFFFF;" points="434.351,342.454 406.865,342.454 406.865,374.291 376.402,374.291 376.402,401.548 
		406.865,401.548 406.865,434.302 434.351,434.302 434.351,401.548 465.043,401.548 465.043,374.291 434.351,374.291 	"/>
</g>
</svg>
