<?xml version="1.0" encoding="iso-8859-1"?>
<!-- Generator: Adobe Illustrator 22.1.0, SVG Export Plug-In . SVG Version: 6.00 Build 0)  -->
<svg version="1.1" id="&#x56FE;&#x5C42;_1" xmlns="http://www.w3.org/2000/svg" xmlns:xlink="http://www.w3.org/1999/xlink" x="0px"
	 y="0px" viewBox="0 0 500 500" style="enable-background:new 0 0 500 500;" xml:space="preserve">
<g>
	<g>
		<path style="fill:#4BA3D3;" d="M499.811,249.882L286.463,36.535c-0.408-0.408-1.107-0.119-1.107,0.458v426.694
			c0,0.577,0.698,0.867,1.107,0.458l213.348-213.347C500.064,250.545,500.064,250.135,499.811,249.882z"/>
		<path style="fill:#4BA3D3;" d="M303.711,336.305H118.954c-0.414,0-0.75-0.336-0.75-0.75v-170.43c0-0.414,0.336-0.75,0.75-0.75
			h184.757c0.414,0,0.75,0.336,0.75,0.75v170.43C304.461,335.969,304.125,336.305,303.711,336.305z"/>
	</g>
	<g>
		<path style="fill:#4BA3D3;" d="M189.839,445.482H74.792C33.552,445.482,0,411.86,0,370.543V130.138
			C0,88.82,33.552,55.198,74.792,55.198v35.819c-21.491,0-38.974,17.546-38.974,39.121v240.405
			c0,21.575,17.483,39.121,38.974,39.121h115.046V445.482z"/>
		<path style="fill:#4BA3D3;" d="M74.792,445.482C33.552,445.482,0,411.86,0,370.543V130.138C0,88.82,33.552,55.198,74.792,55.198
			h115.046v35.819H74.792c-21.491,0-38.974,17.546-38.974,39.121v240.405c0,21.575,17.483,39.121,38.974,39.121V445.482z"/>
	</g>
</g>
</svg>
